<svg width="153" height="57" viewBox="0 0 153 57" fill="none" xmlns="http://www.w3.org/2000/svg">
<g clip-path="url(#clip0_302_58)">
<path d="M19 28.5C19 25.9804 20.0009 23.5641 21.7825 21.7825C23.5641 20.0009 25.9804 19 28.5 19C31.0196 19 33.4359 20.0009 35.2175 21.7825C36.9991 23.5641 38 25.9804 38 28.5C38 31.0196 36.9991 33.4359 35.2175 35.2175C33.4359 36.9991 31.0196 38 28.5 38C25.9804 38 23.5641 36.9991 21.7825 35.2175C20.0009 33.4359 19 31.0196 19 28.5Z" fill="#1ABCFE"/>
<path d="M0 47.5C0 44.9804 1.00089 42.5641 2.78249 40.7825C4.56408 39.0009 6.98044 38 9.5 38H19V47.5C19 50.0196 17.9991 52.4359 16.2175 54.2175C14.4359 55.9991 12.0196 57 9.5 57C6.98044 57 4.56408 55.9991 2.78249 54.2175C1.00089 52.4359 0 50.0196 0 47.5H0Z" fill="#0ACF83"/>
<path d="M19 0V19H28.5C31.0196 19 33.4359 17.9991 35.2175 16.2175C36.9991 14.4359 38 12.0196 38 9.5C38 6.98044 36.9991 4.56408 35.2175 2.78249C33.4359 1.00089 31.0196 0 28.5 0L19 0Z" fill="#FF7262"/>
<path d="M0 9.5C0 12.0196 1.00089 14.4359 2.78249 16.2175C4.56408 17.9991 6.98044 19 9.5 19H19V0H9.5C6.98044 0 4.56408 1.00089 2.78249 2.78249C1.00089 4.56408 0 6.98044 0 9.5H0Z" fill="#F24E1E"/>
<path d="M0 28.5C0 31.0196 1.00089 33.4359 2.78249 35.2175C4.56408 36.9991 6.98044 38 9.5 38H19V19H9.5C6.98044 19 4.56408 20.0009 2.78249 21.7825C1.00089 23.5641 0 25.9804 0 28.5H0Z" fill="#A259FF"/>
</g>
<path d="M62.625 40V16.7273H76.9318V19.6023H65.9545V26.9091H75.8864V29.7841H65.9545V40H62.625ZM81.0795 40V22.5455H84.2841V40H81.0795ZM82.7045 19.7955C82.1288 19.7955 81.6364 19.6023 81.2273 19.2159C80.8258 18.8295 80.625 18.3674 80.625 17.8295C80.625 17.2841 80.8258 16.8182 81.2273 16.4318C81.6364 16.0455 82.1288 15.8523 82.7045 15.8523C83.2727 15.8523 83.7576 16.0455 84.1591 16.4318C84.5682 16.8182 84.7727 17.2841 84.7727 17.8295C84.7727 18.3674 84.5682 18.8295 84.1591 19.2159C83.7576 19.6023 83.2727 19.7955 82.7045 19.7955ZM96.1932 46.9091C94.8371 46.9091 93.6705 46.7311 92.6932 46.375C91.7159 46.0265 90.9129 45.5606 90.2841 44.9773C89.6553 44.3939 89.178 43.7614 88.8523 43.0795L91.5568 41.7955C91.7765 42.1212 92.0606 42.4773 92.4091 42.8636C92.7652 43.25 93.2462 43.5795 93.8523 43.8523C94.4659 44.1326 95.2576 44.2727 96.2273 44.2727C97.5455 44.2727 98.6364 43.9508 99.5 43.3068C100.364 42.6705 100.795 41.6553 100.795 40.2614V36.8068H100.568C100.371 37.1629 100.083 37.572 99.7045 38.0341C99.3333 38.4886 98.8106 38.8864 98.1364 39.2273C97.4697 39.5682 96.5947 39.7386 95.5114 39.7386C94.125 39.7386 92.8788 39.4129 91.7727 38.7614C90.6667 38.1023 89.7917 37.1402 89.1477 35.875C88.5038 34.6023 88.1818 33.0417 88.1818 31.1932C88.1818 29.3598 88.4962 27.7803 89.125 26.4545C89.7614 25.1288 90.6326 24.1098 91.7386 23.3977C92.8447 22.678 94.1098 22.3182 95.5341 22.3182C96.6326 22.3182 97.5152 22.5 98.1818 22.8636C98.8561 23.2273 99.3788 23.6477 99.75 24.125C100.121 24.6023 100.405 25.0114 100.602 25.3523H100.852V22.5455H103.977V40.4205C103.977 41.9205 103.633 43.1477 102.943 44.1023C102.254 45.0568 101.322 45.7614 100.148 46.2159C98.9735 46.678 97.6553 46.9091 96.1932 46.9091ZM96.1477 37.0341C97.1553 37.0341 98.0038 36.7992 98.6932 36.3295C99.3902 35.8598 99.9205 35.1856 100.284 34.3068C100.648 33.428 100.83 32.3788 100.83 31.1591C100.83 29.9545 100.652 28.8977 100.295 27.9886C99.9394 27.072 99.4129 26.3598 98.7159 25.8523C98.0265 25.3371 97.1705 25.0795 96.1477 25.0795C95.0947 25.0795 94.2159 25.3485 93.5114 25.8864C92.8068 26.4242 92.2765 27.1553 91.9205 28.0795C91.572 28.9962 91.3977 30.0227 91.3977 31.1591C91.3977 32.3182 91.5758 33.3409 91.9318 34.2273C92.2955 35.1061 92.8295 35.7955 93.5341 36.2955C94.2386 36.7879 95.1098 37.0341 96.1477 37.0341ZM108.642 40V22.5455H111.722V25.3523H111.938C112.301 24.3977 112.892 23.6553 113.71 23.125C114.536 22.5871 115.521 22.3182 116.665 22.3182C117.831 22.3182 118.805 22.5871 119.585 23.125C120.373 23.6629 120.964 24.4053 121.358 25.3523H121.54C121.964 24.428 122.627 23.6932 123.528 23.1477C124.438 22.5947 125.521 22.3182 126.778 22.3182C128.354 22.3182 129.642 22.8144 130.642 23.8068C131.642 24.7917 132.142 26.2917 132.142 28.3068V40H128.938V28.5341C128.938 27.322 128.608 26.447 127.949 25.9091C127.29 25.3712 126.506 25.1023 125.597 25.1023C124.453 25.1023 123.566 25.4508 122.938 26.1477C122.309 26.8447 121.994 27.7311 121.994 28.8068V40H118.79V28.2955C118.79 27.3409 118.487 26.572 117.881 25.9886C117.275 25.3977 116.491 25.1023 115.528 25.1023C114.869 25.1023 114.259 25.2765 113.699 25.625C113.138 25.9735 112.688 26.4545 112.347 27.0682C112.013 27.6818 111.847 28.3902 111.847 29.1932V40H108.642ZM141.901 40.3864C140.787 40.3864 139.783 40.1818 138.889 39.7727C137.995 39.3561 137.287 38.7538 136.764 37.9659C136.241 37.1705 135.98 36.2045 135.98 35.0682C135.98 34.0758 136.17 33.2652 136.548 32.6364C136.935 32 137.454 31.5 138.105 31.1364C138.757 30.7652 139.48 30.4886 140.276 30.3068C141.071 30.1174 141.878 29.9735 142.696 29.875C143.749 29.7462 144.601 29.6439 145.253 29.5682C145.904 29.4848 146.382 29.3561 146.685 29.1818C146.988 29 147.139 28.7008 147.139 28.2841V28.2045C147.139 27.1742 146.851 26.3788 146.276 25.8182C145.707 25.25 144.855 24.9659 143.719 24.9659C142.537 24.9659 141.605 25.2235 140.923 25.7386C140.249 26.2538 139.779 26.8258 139.514 27.4545L136.503 26.6705C136.904 25.6098 137.473 24.7614 138.207 24.125C138.95 23.4886 139.791 23.0303 140.73 22.75C141.677 22.4621 142.651 22.3182 143.651 22.3182C144.31 22.3182 145.022 22.3977 145.787 22.5568C146.56 22.7083 147.291 22.9962 147.98 23.4205C148.67 23.8447 149.234 24.4621 149.673 25.2727C150.113 26.0758 150.332 27.1288 150.332 28.4318V40H147.196V37.625H147.06C146.855 38.0417 146.533 38.4659 146.094 38.8977C145.662 39.322 145.098 39.678 144.401 39.9659C143.711 40.2462 142.878 40.3864 141.901 40.3864ZM142.537 37.7614C143.514 37.7614 144.344 37.5682 145.026 37.1818C145.715 36.7955 146.238 36.2955 146.594 35.6818C146.957 35.0606 147.139 34.4015 147.139 33.7045V31.3864C147.018 31.5152 146.779 31.6326 146.423 31.7386C146.075 31.8371 145.673 31.9242 145.219 32C144.764 32.0758 144.321 32.1439 143.889 32.2045C143.457 32.2576 143.098 32.303 142.81 32.3409C142.143 32.4318 141.529 32.5758 140.969 32.7727C140.416 32.9621 139.969 33.2462 139.628 33.625C139.295 34.0038 139.128 34.5038 139.128 35.125C139.128 35.9962 139.45 36.6553 140.094 37.1023C140.738 37.5417 141.552 37.7614 142.537 37.7614Z" fill="white"/>
<defs>
<clipPath id="clip0_302_58">
<rect width="38" height="57" fill="white"/>
</clipPath>
</defs>
</svg>
