<svg width="567" height="48" viewBox="0 0 567 48" fill="none" xmlns="http://www.w3.org/2000/svg">
<path d="M6.75 47V18.6875H0.5625V12.625H6.75V4.21875H13.6562V12.625H19.875V18.6875H13.6562V47H6.75ZM29.7188 27.25V47H22.625V0.25H29.75L29.7188 16.875C30.8438 15.3958 32.3021 14.2188 34.0938 13.3438C35.8854 12.4688 37.75 12.0417 39.6875 12.0625C43.3542 12.0833 46.3333 13.3333 48.625 15.8125C50.9167 18.2917 52.0625 21.5104 52.0625 25.4688V47H44.9688V26.5C44.9688 24.0833 44.3021 22.1354 42.9688 20.6562C41.6354 19.1562 39.8958 18.4167 37.75 18.4375C35.4792 18.4375 33.5729 19.2812 32.0312 20.9688C30.4896 22.6562 29.7188 24.75 29.7188 27.25ZM73.75 47.8438C70.3542 47.8438 67.3021 47.0938 64.5938 45.5938C61.8854 44.0938 59.7604 41.9688 58.2188 39.2188C56.6979 36.4688 55.9375 33.3438 55.9375 29.8438C55.9375 27.3229 56.4062 24.9479 57.3438 22.7188C58.2812 20.4896 59.5417 18.5833 61.125 17C62.7083 15.4167 64.5938 14.1667 66.7812 13.25C68.9688 12.3333 71.2917 11.875 73.75 11.875C79.3125 11.8958 83.75 13.75 87.0625 17.4375C90.3958 21.125 91.7812 25.875 91.2188 31.6875H63.3125C63.4583 34.625 64.5208 37.0417 66.5 38.9375C68.4792 40.8125 70.9167 41.7396 73.8125 41.7188C76.1667 41.6979 78.2083 41.1354 79.9375 40.0312C81.6667 38.9062 82.8438 37.4375 83.4688 35.625H90.9375C90.0833 39.2917 88.0938 42.25 84.9688 44.5C81.8646 46.7292 78.125 47.8438 73.75 47.8438ZM63.5 26.4062H83.7812C83.5312 23.9062 82.4896 21.875 80.6562 20.3125C78.8229 18.75 76.5625 17.9583 73.875 17.9375C71.2917 17.9375 69.0312 18.7188 67.0938 20.2812C65.1771 21.8438 63.9792 23.8854 63.5 26.4062ZM101.562 47L91 12.625H98.875L105.625 36.25L112.562 12.625H119.5L126.625 36.0938L133.312 12.625H140.562L129.969 47H123.219L115.594 23.1875L108.344 47H101.562ZM158.375 47.8438C154.979 47.8438 151.927 47.0938 149.219 45.5938C146.51 44.0938 144.385 41.9688 142.844 39.2188C141.323 36.4688 140.562 33.3438 140.562 29.8438C140.562 27.3229 141.031 24.9479 141.969 22.7188C142.906 20.4896 144.167 18.5833 145.75 17C147.333 15.4167 149.219 14.1667 151.406 13.25C153.594 12.3333 155.917 11.875 158.375 11.875C163.938 11.8958 168.375 13.75 171.688 17.4375C175.021 21.125 176.406 25.875 175.844 31.6875H147.938C148.083 34.625 149.146 37.0417 151.125 38.9375C153.104 40.8125 155.542 41.7396 158.438 41.7188C160.792 41.6979 162.833 41.1354 164.562 40.0312C166.292 38.9062 167.469 37.4375 168.094 35.625H175.562C174.708 39.2917 172.719 42.25 169.594 44.5C166.49 46.7292 162.75 47.8438 158.375 47.8438ZM148.125 26.4062H168.406C168.156 23.9062 167.115 21.875 165.281 20.3125C163.448 18.75 161.188 17.9583 158.5 17.9375C155.917 17.9375 153.656 18.7188 151.719 20.2812C149.802 21.8438 148.604 23.8854 148.125 26.4062ZM195.875 47.8438C192.479 47.8438 189.427 47.0938 186.719 45.5938C184.01 44.0938 181.885 41.9688 180.344 39.2188C178.823 36.4688 178.062 33.3438 178.062 29.8438C178.062 27.3229 178.531 24.9479 179.469 22.7188C180.406 20.4896 181.667 18.5833 183.25 17C184.833 15.4167 186.719 14.1667 188.906 13.25C191.094 12.3333 193.417 11.875 195.875 11.875C201.438 11.8958 205.875 13.75 209.188 17.4375C212.521 21.125 213.906 25.875 213.344 31.6875H185.438C185.583 34.625 186.646 37.0417 188.625 38.9375C190.604 40.8125 193.042 41.7396 195.938 41.7188C198.292 41.6979 200.333 41.1354 202.062 40.0312C203.792 38.9062 204.969 37.4375 205.594 35.625H213.062C212.208 39.2917 210.219 42.25 207.094 44.5C203.99 46.7292 200.25 47.8438 195.875 47.8438ZM185.625 26.4062H205.906C205.656 23.9062 204.615 21.875 202.781 20.3125C200.948 18.75 198.688 17.9583 196 17.9375C193.417 17.9375 191.156 18.7188 189.219 20.2812C187.302 21.8438 186.104 23.8854 185.625 26.4062ZM217.312 47V0.3125H224.406V27.4688L238.562 12.625H247.438L232.594 27.9688L248.406 47H239.594L224.406 28.5938V47H217.312ZM264.938 47.8438C261.542 47.8438 258.49 47.0938 255.781 45.5938C253.073 44.0938 250.948 41.9688 249.406 39.2188C247.885 36.4688 247.125 33.3438 247.125 29.8438C247.125 27.3229 247.594 24.9479 248.531 22.7188C249.469 20.4896 250.729 18.5833 252.312 17C253.896 15.4167 255.781 14.1667 257.969 13.25C260.156 12.3333 262.479 11.875 264.938 11.875C270.5 11.8958 274.938 13.75 278.25 17.4375C281.583 21.125 282.969 25.875 282.406 31.6875H254.5C254.646 34.625 255.708 37.0417 257.688 38.9375C259.667 40.8125 262.104 41.7396 265 41.7188C267.354 41.6979 269.396 41.1354 271.125 40.0312C272.854 38.9062 274.031 37.4375 274.656 35.625H282.125C281.271 39.2917 279.281 42.25 276.156 44.5C273.052 46.7292 269.312 47.8438 264.938 47.8438ZM254.688 26.4062H274.969C274.719 23.9062 273.677 21.875 271.844 20.3125C270.01 18.75 267.75 17.9583 265.062 17.9375C262.479 17.9375 260.219 18.7188 258.281 20.2812C256.365 21.8438 255.167 23.8854 254.688 26.4062ZM293.312 27.2188V47H286.25V12.625H293.156V17.125C294.198 15.5 295.625 14.2188 297.438 13.2812C299.25 12.3229 301.208 11.8542 303.312 11.875C307.021 11.8958 310 13.0938 312.25 15.4688C314.521 17.8229 315.656 20.9375 315.656 24.8125V47H308.562V26.1875C308.562 23.7292 307.906 21.7812 306.594 20.3438C305.302 18.8854 303.552 18.1667 301.344 18.1875C299.052 18.1875 297.135 19.0521 295.594 20.7812C294.073 22.4896 293.312 24.6354 293.312 27.2188ZM336.062 47.6875C331.167 47.6875 327.156 46.0104 324.031 42.6562C320.906 39.3021 319.354 35 319.375 29.75C319.396 24.5 320.969 20.2083 324.094 16.875C327.24 13.5208 331.271 11.8542 336.188 11.875C338.521 11.8542 340.729 12.3438 342.812 13.3438C344.896 14.3229 346.562 15.6562 347.812 17.3438V0.28125H354.938V47H347.875V42C346.5 43.75 344.75 45.1354 342.625 46.1562C340.5 47.1771 338.312 47.6875 336.062 47.6875ZM326.781 29.75C326.781 33.1667 327.719 35.9375 329.594 38.0625C331.49 40.1875 333.969 41.25 337.031 41.25C340.094 41.25 342.688 40.1667 344.812 38C346.958 35.8333 348.031 33.0833 348.031 29.75C348.052 26.3958 346.99 23.6354 344.844 21.4688C342.719 19.2812 340.115 18.1979 337.031 18.2188C333.969 18.1979 331.49 19.2604 329.594 21.4062C327.719 23.5312 326.781 26.3125 326.781 29.75ZM376.969 47.75C371.698 47.7292 367.375 46.0417 364 42.6875C360.625 39.3333 358.938 35.0521 358.938 29.8438C358.938 24.5938 360.583 20.2917 363.875 16.9375C367.167 13.5833 371.385 11.8958 376.531 11.875C381.073 11.875 384.927 13.1562 388.094 15.7188C391.281 18.2812 393.188 21.6042 393.812 25.6875H386.188C385.562 23.5208 384.365 21.7604 382.594 20.4062C380.823 19.0521 378.812 18.375 376.562 18.375C373.479 18.3958 371 19.4583 369.125 21.5625C367.25 23.6667 366.312 26.4271 366.312 29.8438C366.312 33.2604 367.281 36.0208 369.219 38.125C371.177 40.2083 373.74 41.25 376.906 41.25C379.01 41.25 380.917 40.6354 382.625 39.4062C384.354 38.1771 385.5 36.5833 386.062 34.625H393.656C392.865 38.5833 390.938 41.7708 387.875 44.1875C384.833 46.5833 381.198 47.7708 376.969 47.75ZM413.656 47.75C408.448 47.7708 404.167 46.1042 400.812 42.75C397.479 39.3958 395.812 35.0938 395.812 29.8438C395.812 26.3646 396.562 23.2604 398.062 20.5312C399.583 17.7812 401.698 15.6562 404.406 14.1562C407.135 12.6354 410.219 11.875 413.656 11.875C417.115 11.875 420.208 12.6354 422.938 14.1562C425.667 15.6562 427.792 17.7812 429.312 20.5312C430.833 23.2604 431.594 26.3646 431.594 29.8438C431.594 33.3021 430.833 36.3958 429.312 39.125C427.792 41.8542 425.667 43.9792 422.938 45.5C420.208 47 417.115 47.75 413.656 47.75ZM403.188 29.8438C403.188 33.2396 404.146 35.9896 406.062 38.0938C408 40.1979 410.531 41.25 413.656 41.25C416.823 41.25 419.375 40.1979 421.312 38.0938C423.25 35.9896 424.208 33.2396 424.188 29.8438C424.208 26.4062 423.25 23.6354 421.312 21.5312C419.375 19.4062 416.823 18.3542 413.656 18.375C410.51 18.3542 407.969 19.4062 406.031 21.5312C404.115 23.6354 403.167 26.4062 403.188 29.8438ZM450.5 47.6875C445.604 47.6875 441.594 46.0104 438.469 42.6562C435.344 39.3021 433.792 35 433.812 29.75C433.833 24.5 435.406 20.2083 438.531 16.875C441.677 13.5208 445.708 11.8542 450.625 11.875C452.958 11.8542 455.167 12.3438 457.25 13.3438C459.333 14.3229 461 15.6562 462.25 17.3438V0.28125H469.375V47H462.312V42C460.938 43.75 459.188 45.1354 457.062 46.1562C454.938 47.1771 452.75 47.6875 450.5 47.6875ZM441.219 29.75C441.219 33.1667 442.156 35.9375 444.031 38.0625C445.927 40.1875 448.406 41.25 451.469 41.25C454.531 41.25 457.125 40.1667 459.25 38C461.396 35.8333 462.469 33.0833 462.469 29.75C462.49 26.3958 461.427 23.6354 459.281 21.4688C457.156 19.2812 454.552 18.1979 451.469 18.2188C448.406 18.1979 445.927 19.2604 444.031 21.4062C442.156 23.5312 441.219 26.3125 441.219 29.75ZM491.188 47.8438C487.792 47.8438 484.74 47.0938 482.031 45.5938C479.323 44.0938 477.198 41.9688 475.656 39.2188C474.135 36.4688 473.375 33.3438 473.375 29.8438C473.375 27.3229 473.844 24.9479 474.781 22.7188C475.719 20.4896 476.979 18.5833 478.562 17C480.146 15.4167 482.031 14.1667 484.219 13.25C486.406 12.3333 488.729 11.875 491.188 11.875C496.75 11.8958 501.188 13.75 504.5 17.4375C507.833 21.125 509.219 25.875 508.656 31.6875H480.75C480.896 34.625 481.958 37.0417 483.938 38.9375C485.917 40.8125 488.354 41.7396 491.25 41.7188C493.604 41.6979 495.646 41.1354 497.375 40.0312C499.104 38.9062 500.281 37.4375 500.906 35.625H508.375C507.521 39.2917 505.531 42.25 502.406 44.5C499.302 46.7292 495.562 47.8438 491.188 47.8438ZM480.938 26.4062H501.219C500.969 23.9062 499.927 21.875 498.094 20.3125C496.26 18.75 494 17.9583 491.312 17.9375C488.729 17.9375 486.469 18.7188 484.531 20.2812C482.615 21.8438 481.417 23.8854 480.938 26.4062ZM512.5 47V12.625H519.156V17.0312C520.115 15.4062 521.396 14.1458 523 13.25C524.604 12.3542 526.396 11.9167 528.375 11.9375V18.5312C525.562 18.4688 523.354 19.2708 521.75 20.9375C520.167 22.5833 519.375 24.9062 519.375 27.9062V47H512.5ZM548.062 22.9375C547.833 21.375 547.198 20.1042 546.156 19.125C545.115 18.1458 543.875 17.6667 542.438 17.6875C541.188 17.7083 540.146 18.125 539.312 18.9375C538.5 19.75 538.094 20.7292 538.094 21.875C538.094 23.7708 539.375 25.1042 541.938 25.875L546.656 27.2188C552.49 28.8646 555.385 32.2396 555.344 37.3438C555.323 40.3021 554.188 42.75 551.938 44.6875C549.688 46.625 546.854 47.5833 543.438 47.5625C539.604 47.5417 536.448 46.5312 533.969 44.5312C531.49 42.5104 530.073 39.8333 529.719 36.5H536.812C537.104 38.1042 537.844 39.4062 539.031 40.4062C540.219 41.3854 541.677 41.8646 543.406 41.8438C544.865 41.8229 546.042 41.4688 546.938 40.7812C547.833 40.0729 548.271 39.1562 548.25 38.0312C548.208 35.9062 546.99 34.4792 544.594 33.75L540.062 32.4375C536.979 31.5417 534.698 30.2917 533.219 28.6875C531.76 27.0833 531.021 25.0521 531 22.5938C530.979 19.5938 532.083 17.0833 534.312 15.0625C536.542 13.0208 539.375 11.9896 542.812 11.9688C546.271 11.9688 549.104 12.9688 551.312 14.9688C553.542 16.9479 554.812 19.6042 555.125 22.9375H548.062ZM558.25 46.5312V38.6562H566.125V46.5312H558.25Z" fill="black"/>
</svg>
