<svg width="724" height="135" viewBox="0 0 724 135" fill="none" xmlns="http://www.w3.org/2000/svg">
<g clip-path="url(#clip0_99_14)">
<path d="M0 73.6352V0.0142517L63.75 36.8247V61.365L21.25 36.8247V85.9053L0 73.6352Z" fill="#00B0FF"/>
<path d="M63.75 36.8246L127.5 0.0141602V73.6351L85 98.1754L63.75 85.9052L106.25 61.3649V36.8246L63.75 61.3649V36.8246Z" fill="#0081CB"/>
<path d="M63.75 85.9052V110.446L106.25 134.986V110.446L63.75 85.9052Z" fill="#00B0FF"/>
<path d="M106.25 134.986L170 98.1754V49.0948L148.75 61.3649V85.9052L106.25 110.446V134.986ZM148.75 36.8246V12.2843L170 0.0141602V24.5545L148.75 36.8246Z" fill="#0081CB"/>
</g>
<path d="M231.886 32.6818H247.364L268.091 83.2727H268.909L289.636 32.6818H305.114V102.5H292.977V54.5341H292.33L273.034 102.295H263.966L244.67 54.4318H244.023V102.5H231.886V32.6818ZM333.409 103.557C330.091 103.557 327.102 102.966 324.443 101.784C321.807 100.58 319.716 98.8068 318.17 96.4659C316.648 94.125 315.886 91.2386 315.886 87.8068C315.886 84.8523 316.432 82.4091 317.523 80.4773C318.614 78.5455 320.102 77 321.989 75.8409C323.875 74.6818 326 73.8068 328.364 73.2159C330.75 72.6023 333.216 72.1591 335.761 71.8864C338.83 71.5682 341.318 71.2841 343.227 71.0341C345.136 70.7614 346.523 70.3523 347.386 69.8068C348.273 69.2386 348.716 68.3636 348.716 67.1818V66.9773C348.716 64.4091 347.955 62.4205 346.432 61.0114C344.909 59.6023 342.716 58.8977 339.852 58.8977C336.83 58.8977 334.432 59.5568 332.659 60.875C330.909 62.1932 329.727 63.75 329.114 65.5455L317.591 63.9091C318.5 60.7273 320 58.0682 322.091 55.9318C324.182 53.7727 326.739 52.1591 329.761 51.0909C332.784 50 336.125 49.4545 339.784 49.4545C342.307 49.4545 344.818 49.75 347.318 50.3409C349.818 50.9318 352.102 51.9091 354.17 53.2727C356.239 54.6136 357.898 56.4432 359.148 58.7614C360.42 61.0795 361.057 63.9773 361.057 67.4545V102.5H349.193V95.3068H348.784C348.034 96.7614 346.977 98.125 345.614 99.3977C344.273 100.648 342.58 101.659 340.534 102.432C338.511 103.182 336.136 103.557 333.409 103.557ZM336.614 94.4886C339.091 94.4886 341.239 94 343.057 93.0227C344.875 92.0227 346.273 90.7045 347.25 89.0682C348.25 87.4318 348.75 85.6477 348.75 83.7159V77.5455C348.364 77.8636 347.705 78.1591 346.773 78.4318C345.864 78.7045 344.841 78.9432 343.705 79.1477C342.568 79.3523 341.443 79.5341 340.33 79.6932C339.216 79.8523 338.25 79.9886 337.432 80.1023C335.591 80.3523 333.943 80.7614 332.489 81.3295C331.034 81.8977 329.886 82.6932 329.045 83.7159C328.205 84.7159 327.784 86.0114 327.784 87.6023C327.784 89.875 328.614 91.5909 330.273 92.75C331.932 93.9091 334.045 94.4886 336.614 94.4886ZM399.614 50.1364V59.6818H369.511V50.1364H399.614ZM376.943 37.5909H389.284V86.75C389.284 88.4091 389.534 89.6818 390.034 90.5682C390.557 91.4318 391.239 92.0227 392.08 92.3409C392.92 92.6591 393.852 92.8182 394.875 92.8182C395.648 92.8182 396.352 92.7614 396.989 92.6477C397.648 92.5341 398.148 92.4318 398.489 92.3409L400.568 101.989C399.909 102.216 398.966 102.466 397.739 102.739C396.534 103.011 395.057 103.17 393.307 103.216C390.216 103.307 387.432 102.841 384.955 101.818C382.477 100.773 380.511 99.1591 379.057 96.9773C377.625 94.7955 376.92 92.0682 376.943 88.7955V37.5909ZM432.554 103.523C427.304 103.523 422.77 102.432 418.952 100.25C415.156 98.0455 412.236 94.9318 410.19 90.9091C408.145 86.8636 407.122 82.1023 407.122 76.625C407.122 71.2386 408.145 66.5114 410.19 62.4432C412.259 58.3523 415.145 55.1705 418.849 52.8977C422.554 50.6023 426.906 49.4545 431.906 49.4545C435.134 49.4545 438.179 49.9773 441.043 51.0227C443.929 52.0455 446.474 53.6364 448.679 55.7955C450.906 57.9545 452.656 60.7045 453.929 64.0455C455.202 67.3636 455.838 71.3182 455.838 75.9091V79.6932H412.918V71.375H444.009C443.986 69.0114 443.474 66.9091 442.474 65.0682C441.474 63.2045 440.077 61.7386 438.281 60.6705C436.509 59.6023 434.44 59.0682 432.077 59.0682C429.554 59.0682 427.338 59.6818 425.429 60.9091C423.52 62.1136 422.031 63.7045 420.963 65.6818C419.918 67.6364 419.384 69.7841 419.361 72.125V79.3864C419.361 82.4318 419.918 85.0455 421.031 87.2273C422.145 89.3864 423.702 91.0455 425.702 92.2045C427.702 93.3409 430.043 93.9091 432.724 93.9091C434.52 93.9091 436.145 93.6591 437.599 93.1591C439.054 92.6364 440.315 91.875 441.384 90.875C442.452 89.875 443.259 88.6364 443.804 87.1591L455.327 88.4545C454.599 91.5 453.213 94.1591 451.168 96.4318C449.145 98.6818 446.554 100.432 443.395 101.682C440.236 102.909 436.622 103.523 432.554 103.523ZM466.278 102.5V50.1364H478.244V58.8636H478.79C479.744 55.8409 481.381 53.5114 483.699 51.875C486.04 50.2159 488.71 49.3864 491.71 49.3864C492.392 49.3864 493.153 49.4205 493.994 49.4886C494.858 49.5341 495.574 49.6136 496.142 49.7273V61.0795C495.619 60.8977 494.79 60.7386 493.653 60.6023C492.54 60.4432 491.46 60.3636 490.415 60.3636C488.165 60.3636 486.142 60.8523 484.347 61.8295C482.574 62.7841 481.176 64.1136 480.153 65.8182C479.131 67.5227 478.619 69.4886 478.619 71.7159V102.5H466.278ZM504.341 102.5V50.1364H516.682V102.5H504.341ZM510.545 42.7045C508.591 42.7045 506.909 42.0568 505.5 40.7614C504.091 39.4432 503.386 37.8636 503.386 36.0227C503.386 34.1591 504.091 32.5795 505.5 31.2841C506.909 29.9659 508.591 29.3068 510.545 29.3068C512.523 29.3068 514.205 29.9659 515.591 31.2841C517 32.5795 517.705 34.1591 517.705 36.0227C517.705 37.8636 517 39.4432 515.591 40.7614C514.205 42.0568 512.523 42.7045 510.545 42.7045ZM544.44 103.557C541.122 103.557 538.134 102.966 535.474 101.784C532.838 100.58 530.747 98.8068 529.202 96.4659C527.679 94.125 526.918 91.2386 526.918 87.8068C526.918 84.8523 527.463 82.4091 528.554 80.4773C529.645 78.5455 531.134 77 533.02 75.8409C534.906 74.6818 537.031 73.8068 539.395 73.2159C541.781 72.6023 544.247 72.1591 546.793 71.8864C549.861 71.5682 552.349 71.2841 554.259 71.0341C556.168 70.7614 557.554 70.3523 558.418 69.8068C559.304 69.2386 559.747 68.3636 559.747 67.1818V66.9773C559.747 64.4091 558.986 62.4205 557.463 61.0114C555.94 59.6023 553.747 58.8977 550.884 58.8977C547.861 58.8977 545.463 59.5568 543.69 60.875C541.94 62.1932 540.759 63.75 540.145 65.5455L528.622 63.9091C529.531 60.7273 531.031 58.0682 533.122 55.9318C535.213 53.7727 537.77 52.1591 540.793 51.0909C543.815 50 547.156 49.4545 550.815 49.4545C553.338 49.4545 555.849 49.75 558.349 50.3409C560.849 50.9318 563.134 51.9091 565.202 53.2727C567.27 54.6136 568.929 56.4432 570.179 58.7614C571.452 61.0795 572.088 63.9773 572.088 67.4545V102.5H560.224V95.3068H559.815C559.065 96.7614 558.009 98.125 556.645 99.3977C555.304 100.648 553.611 101.659 551.565 102.432C549.543 103.182 547.168 103.557 544.44 103.557ZM547.645 94.4886C550.122 94.4886 552.27 94 554.088 93.0227C555.906 92.0227 557.304 90.7045 558.281 89.0682C559.281 87.4318 559.781 85.6477 559.781 83.7159V77.5455C559.395 77.8636 558.736 78.1591 557.804 78.4318C556.895 78.7045 555.872 78.9432 554.736 79.1477C553.599 79.3523 552.474 79.5341 551.361 79.6932C550.247 79.8523 549.281 79.9886 548.463 80.1023C546.622 80.3523 544.974 80.7614 543.52 81.3295C542.065 81.8977 540.918 82.6932 540.077 83.7159C539.236 84.7159 538.815 86.0114 538.815 87.6023C538.815 89.875 539.645 91.5909 541.304 92.75C542.963 93.9091 545.077 94.4886 547.645 94.4886ZM596.838 32.6818V102.5H584.497V32.6818H596.838ZM677.898 32.6818H690.545V78.2955C690.545 83.2955 689.364 87.6932 687 91.4886C684.659 95.2841 681.364 98.25 677.114 100.386C672.864 102.5 667.898 103.557 662.216 103.557C656.511 103.557 651.534 102.5 647.284 100.386C643.034 98.25 639.739 95.2841 637.398 91.4886C635.057 87.6932 633.886 83.2955 633.886 78.2955V32.6818H646.534V77.2386C646.534 80.1477 647.17 82.7386 648.443 85.0114C649.739 87.2841 651.557 89.0682 653.898 90.3636C656.239 91.6364 659.011 92.2727 662.216 92.2727C665.42 92.2727 668.193 91.6364 670.534 90.3636C672.898 89.0682 674.716 87.2841 675.989 85.0114C677.261 82.7386 677.898 80.1477 677.898 77.2386V32.6818ZM716.94 32.6818V102.5H704.293V32.6818H716.94Z" fill="white"/>
<defs>
<clipPath id="clip0_99_14">
<rect width="170" height="135" fill="white"/>
</clipPath>
</defs>
</svg>
